<?xml version="1.0" encoding="UTF-8" standalone="no"?>
<!DOCTYPE svg PUBLIC "-//W3C//DTD SVG 1.1//EN" "http://www.w3.org/Graphics/SVG/1.1/DTD/svg11.dtd">
<svg width="100%" height="100%" viewBox="0 0 982 729" version="1.1" xmlns="http://www.w3.org/2000/svg" xmlns:xlink="http://www.w3.org/1999/xlink" xml:space="preserve" xmlns:serif="http://www.serif.com/" style="fill-rule:evenodd;clip-rule:evenodd;stroke-linejoin:round;stroke-miterlimit:2;">
    <g transform="matrix(1,0,0,1,-109.105,-85.7616)">
        <path d="M645.98,805.762L252.998,805.762C252.998,805.762 245.032,688.929 292.163,687.601C339.294,686.274 333.984,739.38 393.064,666.359C452.144,593.339 523.837,597.322 533.13,640.47C542.424,683.619 515.207,718.137 564.994,707.516C614.78,696.895 686.473,724.775 645.98,805.762Z" style="fill:url(#_Linear1);fill-rule:nonzero;"/>
    </g>
    <g transform="matrix(1,0,0,1,-109.105,-85.7616)">
        <path d="M442.855,805.788L441.529,805.735C444.622,728.813 460.732,679.391 473.702,651.476C487.784,621.165 501.354,608.895 501.49,608.774L502.372,609.766C502.238,609.886 488.826,622.034 474.857,652.14C461.959,679.936 445.937,729.156 442.855,805.788Z" style="fill:rgb(242,242,242);fill-rule:nonzero;"/>
    </g>
    <g transform="matrix(1,0,0,1,-109.105,-85.7616)">
        <path d="M585.085,805.947L583.811,805.576C599.158,752.9 635.298,719.641 635.661,719.311L636.553,720.294C636.193,720.621 600.323,753.645 585.085,805.947Z" style="fill:rgb(242,242,242);fill-rule:nonzero;"/>
    </g>
    <g transform="matrix(1,0,0,1,-109.105,-85.7616)">
        <path d="M314.894,805.853L313.579,805.67C318.786,768.118 309.38,738.982 300.573,721.154C291.037,701.85 280.156,691.306 280.047,691.202L280.966,690.244C281.076,690.349 292.125,701.055 301.763,720.566C310.653,738.561 320.147,767.966 314.894,805.853Z" style="fill:rgb(242,242,242);fill-rule:nonzero;"/>
    </g>
    <rect x="763.789" y="26" width="2" height="185" style="fill:rgb(63,61,86);"/>
    <g transform="matrix(1,0,0,1,-109.105,-85.7616)">
        <path d="M820.762,769.848C815.076,790.863 795.604,803.879 795.604,803.879C795.604,803.879 785.349,782.821 791.034,761.806C796.719,740.79 816.191,727.775 816.191,727.775C816.191,727.775 826.447,748.832 820.762,769.848Z" style="fill:rgb(77,208,225);fill-rule:nonzero;"/>
    </g>
    <g transform="matrix(1,0,0,1,-109.105,-85.7616)">
        <path d="M769.043,769.848C774.728,790.863 794.201,803.879 794.201,803.879C794.201,803.879 804.456,782.821 798.771,761.806C793.086,740.79 773.614,727.775 773.614,727.775C773.614,727.775 763.358,748.832 769.043,769.848Z" style="fill:rgb(77,208,225);fill-rule:nonzero;"/>
    </g>
    <g transform="matrix(1,0,0,1,-109.105,-85.7616)">
        <path d="M777.397,765.331C792.997,780.517 794.902,803.862 794.902,803.862C794.902,803.862 771.515,802.585 755.915,787.399C740.316,772.213 738.41,748.869 738.41,748.869C738.41,748.869 761.797,750.146 777.397,765.331Z" style="fill:rgb(26,94,31);fill-rule:nonzero;"/>
    </g>
    <g transform="matrix(1,0,0,1,-109.105,-85.7616)">
        <path d="M812.408,765.331C796.808,780.517 794.902,803.862 794.902,803.862C794.902,803.862 818.289,802.585 833.889,787.399C849.489,772.213 851.395,748.869 851.395,748.869C851.395,748.869 828.008,750.146 812.408,765.331Z" style="fill:rgb(25,94,31);fill-rule:nonzero;"/>
    </g>
    <ellipse cx="417.5" cy="718.779" rx="417.5" ry="9.697" style="fill:rgb(63,61,86);"/>
    <g transform="matrix(1,0,0,1,-109.105,-85.7616)">
        <path d="M343.715,551.826L338.174,600.311C338.174,600.311 318.78,647.411 316.009,682.044L313.239,720.832L331.248,720.832C331.248,720.832 354.798,665.42 356.183,650.182L389.43,549.055L343.715,551.826Z" style="fill:rgb(181,125,133);fill-rule:nonzero;"/>
    </g>
    <g transform="matrix(1,0,0,1,-109.105,-85.7616)">
        <path d="M414.366,551.826L408.824,600.311C408.824,600.311 389.43,647.411 386.66,682.044L383.889,720.832L401.898,720.832C401.898,720.832 425.448,665.42 426.833,650.182L460.08,549.055L414.366,551.826Z" style="fill:rgb(160,97,106);fill-rule:nonzero;"/>
    </g>
    <g transform="matrix(1,0,0,1,-109.105,-85.7616)">
        <path d="M429.604,439.617L444.842,478.405C444.842,478.405 443.457,511.652 461.466,508.881C479.475,506.111 458.695,472.864 458.695,472.864L447.613,432.69C447.613,432.69 433.76,429.919 429.604,439.617Z" style="fill:rgb(160,97,106);fill-rule:nonzero;"/>
    </g>
    <circle cx="294.871" cy="204.935" r="24.935" style="fill:rgb(181,125,133);"/>
    <g transform="matrix(1,0,0,1,-109.105,-85.7616)">
        <path d="M385.274,298.316C385.274,298.316 376.963,326.022 371.421,326.022C365.88,326.022 408.824,342.646 408.824,342.646C408.824,342.646 397.742,331.563 408.824,310.784L385.274,298.316Z" style="fill:rgb(181,125,133);fill-rule:nonzero;"/>
    </g>
    <g transform="matrix(1,0,0,1,-109.105,-85.7616)">
        <path d="M358.954,449.314L322.936,554.596C322.936,554.596 335.404,561.523 356.183,561.523C376.962,561.523 469.777,558.752 471.163,550.44C472.548,542.129 442.072,449.314 442.072,449.314L436.53,414.681L368.651,432.69L358.954,449.314Z" style="fill:rgb(47,46,65);fill-rule:nonzero;"/>
    </g>
    <g transform="matrix(1,0,0,1,-109.105,-85.7616)">
        <path d="M335.404,719.447L310.468,719.447L306.312,737.456C306.312,737.456 298.001,742.997 300.771,755.464C303.542,767.932 302.156,794.253 302.156,794.253L329.862,812.262C329.862,812.262 338.174,802.565 332.633,785.941L335.404,719.447Z" style="fill:rgb(47,46,65);fill-rule:nonzero;"/>
    </g>
    <g transform="matrix(1,0,0,1,-109.105,-85.7616)">
        <path d="M406.054,719.447L381.118,719.447L376.962,737.456C376.962,737.456 368.651,742.997 371.421,755.464C374.192,767.932 372.807,794.253 372.807,794.253L400.513,812.262C400.513,812.262 408.824,802.565 403.283,785.941L406.054,719.447Z" style="fill:rgb(47,46,65);fill-rule:nonzero;"/>
    </g>
    <g transform="matrix(1,0,0,1,-109.105,-85.7616)">
        <path d="M379.733,323.251C379.733,323.251 398.942,328.351 404.576,334.113L414.366,339.875L426.833,366.196C426.833,366.196 436.53,370.352 436.53,388.36C436.53,406.369 450.383,436.846 450.383,436.846C450.383,436.846 460.08,445.158 453.154,449.314C446.227,453.47 437.916,453.469 437.916,453.469C437.916,453.469 444.842,427.149 430.989,425.763C417.136,424.378 410.21,422.993 408.824,425.763C407.439,428.534 370.036,468.708 354.798,464.552C339.559,460.396 347.871,418.837 347.871,418.837L360.339,321.866C360.339,321.866 370.036,320.481 375.577,321.866C381.118,323.251 379.733,323.251 379.733,323.251Z" style="fill:rgb(208,205,225);fill-rule:nonzero;"/>
    </g>
    <g transform="matrix(1,0,0,1,-109.105,-85.7616)">
        <path d="M332.633,439.617L347.871,478.405C347.871,478.405 346.486,511.652 364.495,508.881C382.504,506.111 361.724,472.864 361.724,472.864L350.642,432.69C350.642,432.69 336.789,429.919 332.633,439.617Z" style="fill:rgb(181,125,133);fill-rule:nonzero;"/>
    </g>
    <g transform="matrix(1,0,0,1,-109.105,-85.7616)">
        <path d="M363.11,323.251L360.339,321.866C360.339,321.866 352.027,313.554 342.33,324.637C332.633,335.719 322.936,393.902 322.936,393.902L322.936,411.911C322.936,411.911 311.854,427.149 321.551,435.461C331.248,443.772 332.633,445.158 332.633,445.158C332.633,445.158 342.33,431.305 353.412,438.231L354.798,432.69C355.919,431.447 356.853,430.047 357.568,428.534C358.954,425.764 361.724,429.919 360.339,425.764C358.954,421.608 360.339,420.222 360.339,418.837C360.339,417.452 361.724,410.525 361.724,410.525L360.339,367.581L363.11,323.251Z" style="fill:rgb(208,205,225);fill-rule:nonzero;"/>
    </g>
    <g transform="matrix(1,0,0,1,-109.105,-85.7616)">
        <path d="M435.045,284.789C435.045,284.789 455.302,240.624 402.361,240.671C402.361,240.671 369.881,223.609 345.147,263.179L319.623,304.784L326.144,303.488L326.972,309.98L335.293,315.085L341.552,308.617L340.517,318.518L412.213,348.966C412.213,348.966 385.183,319.033 395.609,283.742L399.842,292.381L435.045,284.789Z" style="fill:rgb(47,46,65);fill-rule:nonzero;"/>
    </g>
    <ellipse cx="282.289" cy="212" rx="3.5" ry="7" style="fill:rgb(160,97,106);"/>
    <path d="M843.789,26L843.789,0L574.989,0L552.789,0L552.589,0L552.589,558L535.789,558L535.789,712L591.789,712L591.789,558L574.989,558L574.989,26L843.789,26Z" style="fill:rgb(69,91,100);fill-rule:nonzero;"/>
    <ellipse cx="764.789" cy="26" rx="79" ry="14" style="fill:rgb(255,248,225);"/>
    <rect x="603.789" y="207" width="322" height="176" style="fill:url(#_Linear2);"/>
    <g transform="matrix(1.19369,0,0,1.18912,-122.374,-68.2727)">
        <rect x="631.789" y="250.835" width="222" height="110.165" style="fill:rgb(242,242,242);"/>
    </g>
    <g transform="matrix(1,0,0,1,-109.105,-85.7616)">
        <path d="M1007.89,447.762L739.895,447.762L739.895,313.762L1007.89,313.762L1007.89,447.762ZM741.895,445.762L1005.89,445.762L1005.89,315.762L741.895,315.762L741.895,445.762Z" style="fill:rgb(63,61,86);fill-rule:nonzero;"/>
    </g>
    <g transform="matrix(8.5935,0,0,8.5935,-5723.14,-2210.09)">
        <g transform="matrix(12,0,0,12,743.719,295.698)">
            <path d="M0.433,0.005C0.42,0.005 0.41,0.001 0.401,-0.008C0.392,-0.017 0.388,-0.027 0.388,-0.04L0.388,-0.176L0.083,-0.176C0.067,-0.176 0.053,-0.182 0.042,-0.193C0.031,-0.204 0.025,-0.217 0.025,-0.233L0.025,-0.242C0.025,-0.256 0.029,-0.268 0.037,-0.278L0.351,-0.679C0.356,-0.686 0.364,-0.692 0.373,-0.697C0.382,-0.701 0.391,-0.703 0.401,-0.703L0.421,-0.703C0.438,-0.703 0.452,-0.698 0.463,-0.687C0.474,-0.676 0.479,-0.662 0.479,-0.645L0.479,-0.257L0.555,-0.257C0.566,-0.257 0.576,-0.253 0.584,-0.245C0.592,-0.237 0.596,-0.227 0.596,-0.216C0.596,-0.205 0.592,-0.195 0.584,-0.188C0.576,-0.18 0.566,-0.176 0.555,-0.176L0.479,-0.176L0.479,-0.04C0.479,-0.027 0.475,-0.017 0.466,-0.008C0.456,0.001 0.446,0.005 0.433,0.005ZM0.122,-0.257L0.388,-0.257L0.388,-0.6L0.122,-0.257Z" style="fill:rgb(63,61,86);fill-rule:nonzero;"/>
        </g>
        <g transform="matrix(12,0,0,12,751.255,295.698)">
            <path d="M0.314,0.01C0.226,0.01 0.159,-0.022 0.113,-0.087C0.066,-0.152 0.043,-0.239 0.043,-0.349C0.043,-0.459 0.066,-0.546 0.113,-0.611C0.159,-0.676 0.226,-0.708 0.314,-0.708C0.401,-0.708 0.468,-0.676 0.515,-0.611C0.562,-0.546 0.585,-0.459 0.585,-0.349C0.585,-0.239 0.562,-0.152 0.515,-0.087C0.468,-0.022 0.401,0.01 0.314,0.01ZM0.314,-0.074C0.372,-0.074 0.417,-0.098 0.448,-0.147C0.478,-0.196 0.494,-0.263 0.494,-0.349C0.494,-0.434 0.478,-0.501 0.448,-0.55C0.417,-0.599 0.372,-0.623 0.314,-0.623C0.256,-0.623 0.212,-0.599 0.181,-0.55C0.15,-0.501 0.134,-0.434 0.134,-0.349C0.134,-0.263 0.15,-0.196 0.181,-0.147C0.212,-0.098 0.256,-0.074 0.314,-0.074Z" style="fill:rgb(63,61,86);fill-rule:nonzero;"/>
        </g>
        <g transform="matrix(12,0,0,12,758.791,295.698)">
            <path d="M0.433,0.005C0.42,0.005 0.41,0.001 0.401,-0.008C0.392,-0.017 0.388,-0.027 0.388,-0.04L0.388,-0.176L0.083,-0.176C0.067,-0.176 0.053,-0.182 0.042,-0.193C0.031,-0.204 0.025,-0.217 0.025,-0.233L0.025,-0.242C0.025,-0.256 0.029,-0.268 0.037,-0.278L0.351,-0.679C0.356,-0.686 0.364,-0.692 0.373,-0.697C0.382,-0.701 0.391,-0.703 0.401,-0.703L0.421,-0.703C0.438,-0.703 0.452,-0.698 0.463,-0.687C0.474,-0.676 0.479,-0.662 0.479,-0.645L0.479,-0.257L0.555,-0.257C0.566,-0.257 0.576,-0.253 0.584,-0.245C0.592,-0.237 0.596,-0.227 0.596,-0.216C0.596,-0.205 0.592,-0.195 0.584,-0.188C0.576,-0.18 0.566,-0.176 0.555,-0.176L0.479,-0.176L0.479,-0.04C0.479,-0.027 0.475,-0.017 0.466,-0.008C0.456,0.001 0.446,0.005 0.433,0.005ZM0.122,-0.257L0.388,-0.257L0.388,-0.6L0.122,-0.257Z" style="fill:rgb(63,61,86);fill-rule:nonzero;"/>
        </g>
    </g>
    <defs>
        <linearGradient id="_Linear1" x1="0" y1="0" x2="1" y2="0" gradientUnits="userSpaceOnUse" gradientTransform="matrix(5.40477e-14,-106.957,51.7898,2.61705e-14,471.95,814.238)"><stop offset="0" style="stop-color:rgb(46,125,49);stop-opacity:1"/><stop offset="1" style="stop-color:rgb(76,175,80);stop-opacity:1"/></linearGradient>
        <linearGradient id="_Linear2" x1="0" y1="0" x2="1" y2="0" gradientUnits="userSpaceOnUse" gradientTransform="matrix(1.0532e-14,-172,94.0124,5.7566e-15,764.789,381)"><stop offset="0" style="stop-color:rgb(186,104,201);stop-opacity:1"/><stop offset="1" style="stop-color:rgb(103,58,183);stop-opacity:1"/></linearGradient>
    </defs>
</svg>
